<svg xmlns="http://www.w3.org/2000/svg" xmlns:xlink="http://www.w3.org/1999/xlink" version="1.1" width="1080" height="1080" viewBox="0 0 1080 1080" xml:space="preserve">
<desc>Created with Fabric.js 3.5.0</desc>
<defs>
</defs>
<rect x="0" y="0" width="100%" height="100%" fill="#ffffff"/>
<g transform="matrix(1.0163 0 0 1.0163 537.5465 584.2741)" id="rect3052">
<path style="stroke: none; stroke-width: 1; stroke-dasharray: none; stroke-linecap: butt; stroke-dashoffset: 0; stroke-linejoin: miter; stroke-miterlimit: 4; is-custom-font: none; font-file-url: none; fill: rgb(0,128,0); fill-rule: nonzero; opacity: 1;" transform=" translate(-203.8726, -582.3515)" d="m 148.87 145.14 c 0.70082 43.569 0.75046 90.076 0.0937 133.09 c -46.49 14.729 -87.144 48.89 -99.156 97.312 c -5.6447 28.906 -1.7302 58.604 -2.875 87.906 v 499.56 c 0 31.242 70.31 56.563 157.06 56.563 c 86.752 0 157.09 -25.321 157.09 -56.563 c 0 -0.2493 -0.0223 -0.5015 -0.0312 -0.75 v -560.56 c -2.5836 -17.587 -5.8034 -40.258 -16.781 -57.062 c -18.639 -32.257 -50.124 -54.521 -85.219 -65.844 c -0.12146 -43.967 0.3125 -89.192 0.3125 -133.66 z" stroke-linecap="round"/>
</g>
<g transform="matrix(1.0163 0 0 1.0163 536.5983 164.9344)" id="rect3122-8">
<linearGradient id="SVGID_34" gradientUnits="userSpaceOnUse" gradientTransform="matrix(0.9551 0 0 0.5346 -656.7 64.163)" x1="861.26" y1="186.16" x2="939.04" y2="186.16">
<stop offset="0%" style="stop-color:rgb(128,128,0);stop-opacity: 0.54962"/>
<stop offset="33.635999999999996%" style="stop-color:rgb(149,151,0);stop-opacity: 0.54962"/>
<stop offset="100%" style="stop-color:rgb(89,89,0);stop-opacity: 0.54962"/>
</linearGradient>
<path style="stroke: none; stroke-width: 1; stroke-dasharray: none; stroke-linecap: butt; stroke-dashoffset: 0; stroke-linejoin: miter; stroke-miterlimit: 4; is-custom-font: none; font-file-url: none; fill: url(#SVGID_34); fill-rule: nonzero; opacity: 1;" transform=" translate(-202.938, -169.7375)" d="m 165.84 133.8 c -0.0548 19.75 0.14072 39.703 -0.0895 59.375 c 0 6.9036 16.606 12.5 37.098 12.5 c 20.156 0 36.729 -5.4249 37.262 -12.172 c 0.0179 -19.439 0.0149 -39.915 0.0149 -59.703 z" stroke-linecap="round"/>
</g>
<g transform="matrix(1.0163 0 0 1.0163 537.6514 140.2849)" id="path3860">
<radialGradient id="SVGID_35" gradientUnits="userSpaceOnUse" gradientTransform="matrix(1.0664 0.0106 -0.0039 0.3889 -233.69 126.75)" cx="409.92" cy="-9.2813" r="67.141" fx="409.92" fy="-9.2813">
<stop offset="0%" style="stop-color:rgb(0,96,0);stop-opacity: 1"/>
<stop offset="53.513%" style="stop-color:rgb(0,96,0);stop-opacity: 1"/>
<stop offset="56.255%" style="stop-color:rgb(0,128,0);stop-opacity: 1"/>
<stop offset="73.112%" style="stop-color:rgb(0,162,0);stop-opacity: 1"/>
<stop offset="100%" style="stop-color:rgb(0,102,0);stop-opacity: 1"/>
</radialGradient>
<path style="stroke: none; stroke-width: 1; stroke-dasharray: none; stroke-linecap: butt; stroke-dashoffset: 0; stroke-linejoin: miter; stroke-miterlimit: 4; is-custom-font: none; font-file-url: none; fill: url(#SVGID_35); fill-rule: nonzero; opacity: 1;" transform=" translate(-203.9745, -145.4839)" d="m 203.99 104.89 c -37.076 0 -67.125 13.32 -67.125 29.724 c 0 0.0141 -0.00004 0.0277 0 0.0418 h -0.0312 v 21.99 h 0.0625 c 0.35423 16.269 30.238 29.432 67.094 29.432 c 37.076 0 67.125 -13.32 67.125 -29.724 c 0 -0.51261 -0.0358 -0.99878 -0.0937 -1.505 v -18.729 c 0.058 -0.50624 0.0937 -0.9924 0.0937 -1.505 c 0 -16.404 -30.049 -29.724 -67.125 -29.724 z" stroke-linecap="round"/>
</g>
<g transform="matrix(1.0163 0 0 1.0163 538.3208 826.3772)" id="rect3817">
<path style="stroke: none; stroke-width: 1; stroke-dasharray: none; stroke-linecap: butt; stroke-dashoffset: 0; stroke-linejoin: miter; stroke-miterlimit: 4; is-custom-font: none; font-file-url: none; fill: rgb(0,85,0); fill-rule: nonzero; opacity: 1;" transform=" translate(-204.6344, -820.5651)" d="m 54.87 627.05 v 329.75 c -0.30805 1.3884 -0.46875 2.8024 -0.46875 4.2188 c 0 29.309 67.204 53.063 150.09 53.063 c 80.813 0 146.72 -22.583 149.97 -50.875 h 0.40625 v -334.69 c -0.0442 0.35267 -0.113 0.71207 -0.1875 1.0625 c -0.0753 0.3543 -0.17536 0.7106 -0.28125 1.0625 c -0.10551 0.35039 -0.2083 0.68333 -0.34375 1.0312 c -0.0169 0.0435 -0.0451 0.0815 -0.0625 0.125 c -0.12564 0.31475 -0.25639 0.62487 -0.40625 0.9375 c -0.1635 0.34107 -0.33926 0.69281 -0.53125 1.0312 c -0.18998 0.33491 -0.40747 0.66776 -0.625 1 c -0.22773 0.34781 -0.46121 0.68647 -0.71875 1.0312 c -0.75454 1.0109 -1.6209 2.017 -2.625 3 c -0.11929 0.11677 -0.25226 0.22739 -0.375 0.34375 c -0.22248 0.21099 -0.45377 0.4154 -0.6875 0.625 c -0.36325 0.32564 -0.73491 0.64655 -1.125 0.96875 c -0.38405 0.31721 -0.77779 0.62373 -1.1875 0.9375 c -0.41458 0.31743 -0.84077 0.65494 -1.2812 0.96875 c -0.0788 0.0561 -0.17038 0.10023 -0.25 0.15625 c -0.36625 0.25773 -0.74149 0.52605 -1.125 0.78125 c -1.3918 0.92549 -2.9185 1.8284 -4.5312 2.7188 c -0.81979 0.45261 -1.6563 0.90075 -2.5312 1.3438 c -0.74171 0.3758 -1.5007 0.75634 -2.2812 1.125 c -0.26868 0.1269 -0.53928 0.24896 -0.8125 0.375 c -1.0565 0.48735 -2.1581 0.9634 -3.2812 1.4375 c -0.69201 0.2921 -1.377 0.58809 -2.0938 0.875 c -0.28909 0.11573 -0.58193 0.22888 -0.875 0.34375 c -0.99866 0.39143 -2.0184 0.775 -3.0625 1.1562 c -0.0858 0.0313 -0.16389 0.0625 -0.25 0.0937 c -0.10534 0.0382 -0.20671 0.0869 -0.3125 0.125 c -1.3499 0.48672 -2.7339 0.93697 -4.1562 1.4062 c -1.2865 0.42444 -2.5936 0.84035 -3.9375 1.25 c -0.26445 0.0807 -0.51461 0.16992 -0.78125 0.25 c -0.53709 0.16126 -1.0791 0.30988 -1.625 0.46875 c -1.0967 0.31942 -2.181 0.62794 -3.3125 0.9375 c -0.43296 0.11844 -0.87453 0.22678 -1.3125 0.34375 c -1.2721 0.33986 -2.5302 0.67275 -3.8438 1 c -0.16573 0.0413 -0.33362 0.0839 -0.5 0.125 c -1.6086 0.39731 -3.2383 0.77836 -4.9062 1.1562 c -1.8342 0.4156 -3.6906 0.82742 -5.5938 1.2188 c -0.93098 0.19139 -1.8655 0.37706 -2.8125 0.5625 c -0.54043 0.1059 -1.0794 0.20856 -1.625 0.3125 c -1.5922 0.30333 -3.209 0.58871 -4.8438 0.875 c -0.84646 0.14824 -1.6737 0.29392 -2.5312 0.4375 c -0.48629 0.0814 -0.97895 0.17011 -1.4688 0.25 c -1.5604 0.25461 -3.1236 0.51101 -4.7188 0.75 c -1.6735 0.25064 -3.3522 0.4857 -5.0625 0.71875 c -2.1894 0.29864 -4.4093 0.57475 -6.6562 0.84375 c -2.2448 0.26873 -4.5134 0.51174 -6.8125 0.75 c -1.2606 0.13063 -2.5364 0.25374 -3.8125 0.375 c -1.3594 0.12909 -2.7173 0.25671 -4.0938 0.375 c -2.3039 0.1981 -4.6506 0.39533 -7 0.5625 c -4.5366 0.3228 -9.1536 0.57835 -13.844 0.78125 c -0.16763 0.007 -0.33219 0.0242 -0.5 0.0312 c -1.2014 0.0507 -2.4145 0.0824 -3.625 0.125 c -3.6906 0.13015 -7.3874 0.22838 -11.156 0.28125 c -2.506 0.0352 -5.0256 0.0625 -7.5625 0.0625 c -12.936 0 -25.494 -0.47324 -37.469 -1.3438 c -0.0104 -0.00076 -0.0208 0.00076 -0.0312 0 c -2.3968 -0.17439 -4.7448 -0.3559 -7.0938 -0.5625 c -4.4569 -0.39185 -8.7944 -0.87178 -13.062 -1.375 c -0.22654 -0.0267 -0.46152 -0.0355 -0.6875 -0.0625 c -0.0104 -0.001 -0.0209 0.001 -0.0312 0 c -2.2333 -0.26712 -4.4485 -0.54735 -6.625 -0.84375 c -0.0103 -0.001 -0.0209 0.001 -0.0312 0 c -2.176 -0.2965 -4.3215 -0.61261 -6.4375 -0.9375 c -0.0103 -0.002 -0.0209 0.002 -0.0312 0 c -0.33801 -0.0519 -0.66357 -0.10361 -1 -0.15625 c -3.2388 -0.50671 -6.3821 -1.0541 -9.4688 -1.625 c -0.6109 -0.11296 -1.2391 -0.22835 -1.8438 -0.34375 c -0.0203 -0.004 -0.0422 0.004 -0.0625 0 c -0.65696 -0.12551 -1.288 -0.24664 -1.9375 -0.375 c -2.5674 -0.50748 -5.0848 -1.043 -7.5312 -1.5938 c -0.67287 -0.15148 -1.3679 -0.31409 -2.0312 -0.46875 c -0.0201 -0.005 -0.0424 0.005 -0.0625 0 c -0.89487 -0.20884 -1.7477 -0.4417 -2.625 -0.65625 c -0.94011 -0.22997 -1.893 -0.4511 -2.8125 -0.6875 c -1.7537 -0.45074 -3.4799 -0.90151 -5.1563 -1.375 c -0.0225 -0.006 -0.04 -0.0249 -0.0625 -0.0312 c -3.3684 -0.95279 -6.5564 -1.9293 -9.5938 -2.9688 c -0.0223 -0.008 -0.0402 -0.0236 -0.0625 -0.0312 c -0.41724 -0.14297 -0.80804 -0.29297 -1.2188 -0.4375 c -2.2856 -0.80434 -4.4855 -1.6491 -6.5625 -2.5 c -0.28651 -0.11738 -0.59258 -0.22552 -0.875 -0.34375 c -1.326 -0.55505 -2.6097 -1.1142 -3.8438 -1.6875 c -0.0217 -0.0101 -0.0408 -0.0212 -0.0625 -0.0312 c -1.2399 -0.57707 -2.4187 -1.1553 -3.5625 -1.75 c -0.013 -0.007 -0.0183 -0.0245 -0.0312 -0.0312 c -1.1421 -0.5945 -2.2387 -1.1702 -3.2815 -1.7814 c -0.0126 -0.007 -0.0186 -0.0239 -0.0312 -0.0312 c -0.50659 -0.29731 -1.0174 -0.60514 -1.5 -0.90625 c -0.02 -0.0125 -0.0425 -0.0188 -0.0625 -0.0312 c -0.21753 -0.13606 -0.41242 -0.26943 -0.625 -0.40625 c -0.2731 -0.17569 -0.54761 -0.35432 -0.8125 -0.53125 c -0.45526 -0.30438 -0.91307 -0.62953 -1.3438 -0.9375 c -0.0189 -0.0135 -0.0436 -0.0177 -0.0625 -0.0312 c -0.28575 -0.20493 -0.53775 -0.41853 -0.8125 -0.625 c -0.154 -0.11565 -0.31822 -0.22762 -0.46875 -0.34375 c -0.40881 -0.31574 -0.80465 -0.6183 -1.1875 -0.9375 c -0.0114 -0.009 -0.0199 -0.0218 -0.0312 -0.0312 c -0.38185 -0.3191 -0.76945 -0.6463 -1.125 -0.96875 c -0.0113 -0.0102 -0.02 -0.021 -0.0312 -0.0312 c -0.34854 -0.31689 -0.6772 -0.64872 -1 -0.96875 c -0.0159 -0.0157 -0.0467 -0.0155 -0.0625 -0.0312 c -0.32632 -0.32492 -0.63806 -0.64071 -0.9375 -0.96875 c -0.0101 -0.011 -0.0212 -0.0202 -0.0312 -0.0312 c -0.2983 -0.32786 -0.57265 -0.66912 -0.84375 -1 c -0.009 -0.0116 -0.0218 -0.0197 -0.0312 -0.0312 c -0.26982 -0.33054 -0.50767 -0.66655 -0.75 -1 c -0.009 -0.0119 -0.0226 -0.0193 -0.0312 -0.0312 c -0.24117 -0.33328 -0.47415 -0.66392 -0.6875 -1 c -0.008 -0.0121 -0.0236 -0.0192 -0.0312 -0.0312 c -0.0911 -0.14416 -0.1641 -0.29284 -0.25 -0.4375 c -0.12072 -0.20265 -0.23322 -0.42138 -0.34375 -0.625 c -0.38614 -0.71136 -0.70919 -1.4025 -0.96875 -2.125 c -0.12464 -0.34707 -0.24888 -0.68176 -0.34375 -1.0312 c -0.003 -0.01 0.003 -0.0213 0 -0.0312 c -0.19204 -0.7075 -0.30718 -1.4082 -0.375 -2.125 c -0.002 -0.0207 0.002 -0.0418 0 -0.0625 c -0.0307 -0.34317 -0.0607 -0.6861 -0.0625 -1.0312 h -0.0312 z" stroke-linecap="round"/>
</g>
<g transform="matrix(1.0163 0 0 1.6004 536.4278 291.4324)" id="rect4610">
<path style="stroke: none; stroke-width: 1; stroke-dasharray: none; stroke-linecap: butt; stroke-dashoffset: 0; stroke-linejoin: miter; stroke-miterlimit: 4; is-custom-font: none; font-file-url: none; fill: rgb(0,79,0); fill-opacity: 0.48; fill-rule: nonzero; opacity: 1;" transform=" translate(-365.4006, -246.8716)" d="m 311.85 237.18 c -2.5505 24.048 115.35 17.492 109.88 0.2245 c 30.464 26.302 -151.56 24.849 -109.88 -0.2245 z" stroke-linecap="round"/>
</g>
<g transform="matrix(1.0163 0 0 1.0163 464.6321 570.6416)" id="rect3886">
<radialGradient id="SVGID_36" gradientUnits="userSpaceOnUse" gradientTransform="matrix(-1.6846 -0.0479 0.2991 -10.527 516.49 5217)" cx="297.34" cy="462.68" r="50.609" fx="331.03" fy="460.45">
<stop offset="0%" style="stop-color:rgb(255,255,255);stop-opacity: 0.41985"/>
<stop offset="100%" style="stop-color:rgb(255,255,255);stop-opacity: 0"/>
</radialGradient>
<path style="stroke: none; stroke-width: 1; stroke-dasharray: none; stroke-linecap: butt; stroke-dashoffset: 0; stroke-linejoin: miter; stroke-miterlimit: 4; is-custom-font: none; font-file-url: none; fill: url(#SVGID_36); fill-rule: nonzero; opacity: 1;" transform=" translate(-132.1272, -568.9376)" d="m 166.93 143.89 c -2.4696 1.1647 -3.479 1.258 -4.5625 4.75 l -0.875 29.811 c 1.0089 1.5887 3.4094 1.9498 7.25 3.6268 c -0.175 31.398 -0.0625 76.293 -0.0625 111.91 l -0.375 -0.0625 c -32.489 24.768 -79.14 34.608 -87.031 106.28 c 0.18681 203.43 0.2807 376.85 0.40625 580.28 c 6.7917 5.6471 18.833 10.914 30.125 13.5 c 0 -203.43 0.5 -390.35 0.5 -593.78 c 0.41963 -56.859 41.121 -75.928 69.094 -105.03 c 2.4638 -24.09 1.3125 -76.86 1.3125 -110.5 c -3.7702 -1.1188 -9.0123 -0.84273 -10.944 -3.2487 l 0.69411 -28.501 c -0.8527 -4.2118 2.8021 -5.3138 3.7188 -6.5312 z" stroke-linecap="round"/>
</g>
<g transform="matrix(1.0163 0 0 1.0163 537.4782 98.2397)" id="rect3122">
<linearGradient id="SVGID_37" gradientUnits="userSpaceOnUse" gradientTransform="matrix(0.9551 0 0 0.5346 -493.26 -38.233)" x1="861.26" y1="186.16" x2="939.04" y2="186.16">
<stop offset="0%" style="stop-color:rgb(128,128,0);stop-opacity: 1"/>
<stop offset="33.635999999999996%" style="stop-color:rgb(149,151,0);stop-opacity: 1"/>
<stop offset="100%" style="stop-color:rgb(89,89,0);stop-opacity: 1"/>
</linearGradient>
<path style="stroke: none; stroke-width: 1; stroke-dasharray: none; stroke-linecap: butt; stroke-dashoffset: 0; stroke-linejoin: miter; stroke-miterlimit: 4; is-custom-font: none; font-file-url: none; fill: url(#SVGID_37); fill-rule: nonzero; opacity: 1;" transform=" translate(-366.4339, -67.3435)" d="m 329.28 31.406 c -0.0548 19.75 0.14072 39.703 -0.0895 59.375 c 0 6.9036 16.606 12.5 37.098 12.5 c 20.156 0 36.854 -5.4249 37.387 -12.172 c 0.0179 -19.439 -0.1101 -39.915 -0.1101 -59.703 z" stroke-linecap="round"/>
</g>
<g transform="matrix(0.6395 0 0 0.5185 537.4507 61.7949)" id="path2998-4">
<radialGradient id="SVGID_38" gradientUnits="userSpaceOnUse" gradientTransform="matrix(1 0 0 0.4153 0 20.97)" cx="417.2" cy="25.242" r="59" fx="417.89" fy="-13.403">
<stop offset="0%" style="stop-color:rgb(122,122,0);stop-opacity: 1"/>
<stop offset="88.69200000000001%" style="stop-color:rgb(117,117,0);stop-opacity: 1"/>
<stop offset="93.46900000000001%" style="stop-color:rgb(114,114,0);stop-opacity: 1"/>
<stop offset="100%" style="stop-color:rgb(138,138,0);stop-opacity: 1"/>
</radialGradient>
<path style="stroke: none; stroke-width: 1; stroke-dasharray: none; stroke-linecap: butt; stroke-dashoffset: 0; stroke-linejoin: miter; stroke-miterlimit: 4; is-custom-font: none; font-file-url: none; fill: url(#SVGID_38); fill-rule: nonzero; opacity: 1;" transform=" translate(-417, -35.862)" d="m 476 35.862 a 59 24.5 0 1 1 -118 0 a 59 24.5 0 1 1 118 0 z" stroke-linecap="round"/>
</g>
<g transform="matrix(0.5721 0 0 0.9534 538.2141 969.1191)" id="path3822">
<radialGradient id="SVGID_39" gradientUnits="userSpaceOnUse" gradientTransform="matrix(0.9999 -0.0091 0.0047 0.1867 -3.876 697.66)" cx="524.96" cy="838.21" r="266.68" fx="525.34" fy="620.53">
<stop offset="0%" style="stop-color:rgb(0,129,0);stop-opacity: 1"/>
<stop offset="20.624000000000002%" style="stop-color:rgb(0,93,0);stop-opacity: 1"/>
<stop offset="85.32%" style="stop-color:rgb(0,106,0);stop-opacity: 1"/>
<stop offset="100%" style="stop-color:rgb(0,67,0);stop-opacity: 1"/>
</radialGradient>
<path style="stroke: none; stroke-width: 1; stroke-dasharray: none; stroke-linecap: butt; stroke-dashoffset: 0; stroke-linejoin: miter; stroke-miterlimit: 4; is-custom-font: none; font-file-url: none; fill: url(#SVGID_39); fill-rule: nonzero; opacity: 1;" transform=" translate(-523.26, -852.35)" d="m 789.94 852.35 a 266.68 56.569 0 1 1 -533.36 0 a 266.68 56.569 0 1 1 533.36 0 z" stroke-linecap="round"/>
</g>
<g transform="matrix(1.0781 0 0 1.0163 538.6373 629.6563)" id="path3879">
<linearGradient id="SVGID_40" gradientUnits="userSpaceOnUse" gradientTransform="matrix(1 0 0 1 0 0)" x1="300.02" y1="522.48" x2="499.29" y2="478.48">
<stop offset="0%" style="stop-color:rgb(0,160,42);stop-opacity: 1"/>
<stop offset="100%" style="stop-color:rgb(0,115,30);stop-opacity: 1"/>
</linearGradient>
<path style="stroke: none; stroke-width: 1; stroke-dasharray: none; stroke-linecap: butt; stroke-dashoffset: 0; stroke-linejoin: miter; stroke-miterlimit: 4; is-custom-font: none; font-file-url: none; fill: url(#SVGID_40); fill-rule: nonzero; opacity: 1;" transform=" translate(-412.95, -506.48)" d="m 554.37 506.48 a 141.42 42.426 0 1 1 -282.84 0 a 141.42 42.426 0 1 1 282.84 0 z" stroke-linecap="round"/>
</g>
</svg>